<?xml version="1.0" encoding="UTF-8" standalone="no"?>
<!DOCTYPE svg PUBLIC "-//W3C//DTD SVG 1.1//EN" "http://www.w3.org/Graphics/SVG/1.1/DTD/svg11.dtd">
<svg xmlns="http://www.w3.org/2000/svg" version="1.1" viewBox="42 0.00 326.00 152.00">
<path fill="#ffffff" d="
  M 210.01 0.00
  Q 248.94 3.33 269.86 35.35
  C 272.02 38.65 273.28 41.89 275.26 44.94
  Q 276.79 47.30 280.02 46.82
  Q 319.70 41.04 367.66 35.13
  A 0.21 0.21 0.0 0 1 367.87 35.44
  C 364.54 41.46 359.61 48.62 353.60 51.55
  Q 351.07 52.78 344.59 53.63
  Q 274.50 62.78 251.25 66.01
  Q 247.87 66.47 247.05 69.80
  Q 245.02 78.01 241.69 88.21
  Q 240.71 91.20 242.20 93.81
  Q 247.16 102.47 252.03 111.45
  C 252.98 113.19 252.89 114.74 251.47 116.29
  Q 244.37 124.02 235.36 128.74
  A 0.40 0.40 0.0 0 1 234.80 128.53
  L 205.87 54.48
  A 0.65 0.65 0.0 0 0 204.66 54.48
  L 175.42 129.06
  A 0.32 0.32 0.0 0 1 174.94 129.20
  C 168.15 124.27 162.65 120.27 157.60 114.75
  A 1.31 1.31 0.0 0 1 157.43 113.21
  Q 164.87 100.26 168.30 93.57
  Q 169.35 91.51 168.58 87.93
  Q 167.94 85.01 163.04 68.68
  Q 162.34 66.34 159.75 65.98
  Q 143.84 63.81 113.47 59.90
  C 93.56 57.33 79.55 55.12 62.64 53.05
  C 53.70 51.96 47.69 43.94 43.02 36.25
  Q 42.75 35.81 42.79 35.64
  Q 42.96 35.04 43.60 35.13
  Q 91.35 41.50 131.77 46.92
  C 133.93 47.21 134.76 46.43 135.71 44.48
  Q 155.37 3.89 201.24 0.00
  L 210.01 0.00
  Z
  M 205.26 28.33
  Q 205.31 28.33 205.35 28.34
  A 0.26 0.08 9.5 0 1 205.53 28.43
  L 232.23 75.97
  A 0.39 0.39 0.0 0 0 232.92 75.95
  Q 241.23 59.10 243.49 54.47
  C 244.38 52.63 245.78 51.15 247.73 50.95
  Q 257.05 49.99 265.70 48.52
  A 0.50 0.50 0.0 0 0 266.07 47.84
  C 256.07 23.93 230.71 9.16 205.26 9.16
  C 179.81 9.16 154.45 23.93 144.45 47.84
  A 0.50 0.50 0.0 0 0 144.82 48.52
  Q 153.47 49.99 162.79 50.95
  C 164.74 51.15 166.14 52.63 167.03 54.47
  Q 169.29 59.10 177.60 75.95
  A 0.39 0.39 0.0 0 0 178.29 75.97
  L 204.99 28.43
  A 0.26 0.08 -9.5 0 1 205.17 28.34
  Q 205.21 28.33 205.26 28.33
  Z"
/>
<path fill="#ffffff" d="
  M 346.43 85.38
  C 344.62 91.69 338.00 98.06 332.55 100.95
  Q 329.53 102.55 323.46 103.33
  Q 296.35 106.85 275.31 109.83
  A 4.61 4.57 11.5 0 0 272.06 111.96
  Q 269.17 116.66 265.66 121.17
  C 245.33 147.22 210.30 156.98 179.47 146.01
  Q 153.65 136.81 138.77 112.23
  C 137.64 110.36 135.71 109.80 133.43 109.53
  Q 111.73 106.92 86.03 103.16
  Q 80.42 102.34 77.84 100.95
  C 71.88 97.76 66.99 90.88 63.40 85.74
  A 0.65 0.65 0.0 0 1 64.02 84.72
  L 129.95 93.47
  A 0.77 0.76 -89.7 0 0 130.81 92.61
  L 130.15 87.61
  A 2.68 2.67 -89.7 0 0 127.89 85.32
  Q 113.63 83.21 73.02 78.00
  C 63.90 76.83 56.73 68.05 53.13 60.14
  A 0.29 0.29 0.0 0 1 53.44 59.73
  L 136.57 70.77
  A 1.80 1.79 4.2 0 1 138.13 72.57
  Q 137.87 96.25 150.79 113.62
  C 179.42 152.11 238.58 149.98 263.39 108.14
  Q 272.76 92.34 272.26 72.96
  A 2.15 2.14 -4.8 0 1 274.12 70.77
  L 356.93 59.75
  A 0.39 0.39 0.0 0 1 357.34 60.28
  Q 352.99 70.85 343.28 75.87
  Q 339.89 77.63 332.87 78.56
  Q 307.51 81.93 282.47 85.33
  A 2.42 2.40 -89.8 0 0 280.40 87.40
  L 279.70 92.69
  A 0.70 0.70 0.0 0 0 280.49 93.48
  L 345.90 84.77
  A 0.48 0.48 0.0 0 1 346.43 85.38
  Z"
/>
<path fill="#ffffff" d="
  M 205.26 121.61
  Q 204.55 121.61 203.78 120.95
  Q 197.69 115.68 190.05 108.81
  A 3.05 3.03 31.8 0 1 189.25 105.45
  L 195.21 90.25
  A 0.40 0.39 -61.4 0 1 195.80 90.07
  Q 199.08 92.40 203.71 96.07
  Q 204.25 96.50 205.27 96.50
  Q 206.29 96.50 206.83 96.07
  Q 211.46 92.40 214.74 90.07
  A 0.40 0.39 61.4 0 1 215.33 90.25
  L 221.28 105.46
  A 3.05 3.03 -31.7 0 1 220.48 108.82
  Q 212.84 115.68 206.74 120.95
  Q 205.97 121.61 205.26 121.61
  Z"
/>
</svg>
