<?xml version="1.0" encoding="UTF-8" standalone="no"?>
<!DOCTYPE svg PUBLIC "-//W3C//DTD SVG 1.1//EN" "http://www.w3.org/Graphics/SVG/1.1/DTD/svg11.dtd">
<svg xmlns="http://www.w3.org/2000/svg" version="1.1" viewBox="0.00 0.00 1024.00 1024.00">
<path fill="currentColor" d="
  M 566.62 848.98
  A 0.33 0.33 0.0 0 1 566.29 848.48
  Q 575.32 833.18 581.98 815.29
  Q 595.07 780.14 590.92 742.74
  Q 590.19 736.18 588.80 727.72
  Q 588.53 726.12 587.77 725.09
  A 0.65 0.65 0.0 0 0 586.71 725.10
  Q 578.32 737.04 568.82 747.58
  Q 545.44 773.53 517.64 797.14
  Q 464.59 842.20 403.30 873.69
  C 374.72 888.38 345.82 901.04 316.04 909.26
  Q 311.91 910.40 309.22 907.71
  C 305.55 904.05 307.13 899.15 311.39 896.61
  Q 346.13 875.94 370.91 844.41
  C 396.25 812.17 413.02 771.32 413.77 730.25
  C 413.98 719.18 413.26 705.40 411.70 694.63
  C 403.49 638.01 372.08 587.26 332.83 546.67
  Q 323.05 536.56 309.65 523.38
  C 304.59 518.40 309.12 511.04 315.67 513.35
  C 335.49 520.33 357.14 528.38 379.72 535.59
  Q 382.44 536.46 383.81 534.64
  Q 384.59 533.62 383.93 532.45
  Q 370.53 508.65 361.80 485.23
  Q 355.66 468.77 353.06 447.97
  Q 348.60 412.35 355.82 379.50
  Q 361.41 354.01 375.34 326.81
  C 394.03 290.31 419.71 257.93 449.94 229.69
  C 500.33 182.61 560.78 145.97 625.03 122.04
  Q 645.37 114.46 663.81 109.59
  C 667.52 108.61 671.44 108.05 673.52 112.06
  Q 675.21 115.31 673.06 118.58
  C 650.31 153.28 628.16 188.21 617.90 229.12
  Q 613.20 247.86 611.04 277.75
  Q 610.70 282.49 611.22 291.72
  Q 613.46 331.96 627.60 369.68
  C 633.28 384.85 638.08 398.66 644.66 412.60
  C 664.17 453.90 673.68 473.54 688.04 506.96
  Q 696.42 526.45 700.69 539.54
  Q 706.60 557.66 712.79 580.74
  Q 717.79 599.42 719.98 616.90
  Q 723.51 645.05 723.12 671.99
  Q 722.71 700.57 714.28 728.05
  C 706.22 754.32 694.51 779.50 676.12 800.29
  Q 670.03 807.19 661.09 813.81
  Q 645.54 825.33 631.15 832.65
  C 611.25 842.77 590.37 845.80 566.62 848.98
  Z"
/>
</svg>
